<?xml version="1.0" encoding="UTF-8" standalone="no"?>
<!-- Created with Inkscape (http://www.inkscape.org/) -->

<svg
   xmlns:dc="http://purl.org/dc/elements/1.1/"
   xmlns:cc="http://creativecommons.org/ns#"
   xmlns:rdf="http://www.w3.org/1999/02/22-rdf-syntax-ns#"
   xmlns:svg="http://www.w3.org/2000/svg"
   xmlns="http://www.w3.org/2000/svg"
   xmlns:sodipodi="http://sodipodi.sourceforge.net/DTD/sodipodi-0.dtd"
   xmlns:inkscape="http://www.inkscape.org/namespaces/inkscape"
   width="10mm"
   height="10mm"
   viewBox="0 0 10 10"
   version="1.1"
   id="svg5207"
   inkscape:version="0.92.1 r15371"
   sodipodi:docname="stop.svg"
   inkscape:export-filename="Z:\Архив\0. Магистратура\РобоФутбол\SVG\masks\stop.png"
   inkscape:export-xdpi="400"
   inkscape:export-ydpi="400">
  <defs
     id="defs5201" />
  <sodipodi:namedview
     id="base"
     pagecolor="#ffffff"
     bordercolor="#666666"
     borderopacity="1.0"
     inkscape:pageopacity="0.0"
     inkscape:pageshadow="2"
     inkscape:zoom="15.603195"
     inkscape:cx="17.007228"
     inkscape:cy="22.052585"
     inkscape:document-units="mm"
     inkscape:current-layer="layer1"
     showgrid="false"
     inkscape:window-width="1920"
     inkscape:window-height="1017"
     inkscape:window-x="-8"
     inkscape:window-y="-8"
     inkscape:window-maximized="1" />
  <metadata
     id="metadata5204">
    <rdf:RDF>
      <cc:Work
         rdf:about="">
        <dc:format>image/svg+xml</dc:format>
        <dc:type
           rdf:resource="http://purl.org/dc/dcmitype/StillImage" />
        <dc:title></dc:title>
      </cc:Work>
    </rdf:RDF>
  </metadata>
  <g
     inkscape:label="Layer 1"
     inkscape:groupmode="layer"
     id="layer1"
     transform="translate(0,-287)">
    <path
       style="opacity:1;fill:#262626;fill-opacity:1;fill-rule:nonzero;stroke:none;stroke-width:7.86009312;stroke-linecap:square;stroke-linejoin:bevel;stroke-miterlimit:4;stroke-dasharray:none;stroke-opacity:1;paint-order:stroke fill markers"
       d="M 18.898438 0 A 18.897638 18.897638 0 0 0 0 18.898438 A 18.897638 18.897638 0 0 0 18.898438 37.794922 A 18.897638 18.897638 0 0 0 37.794922 18.898438 A 18.897638 18.897638 0 0 0 18.898438 0 z M 18.896484 12.601562 A 6.2985826 6.2985826 0 0 1 25.193359 18.900391 A 6.2985826 6.2985826 0 0 1 18.896484 25.197266 A 6.2985826 6.2985826 0 0 1 12.597656 18.900391 A 6.2985826 6.2985826 0 0 1 18.896484 12.601562 z "
       transform="matrix(0.26458333,0,0,0.26458333,0,287)"
       id="path5752-7-4" />
  </g>
</svg>
